<?xml version="1.0" encoding="utf-8"?>
<!-- Generator: Adobe Illustrator 16.0.0, SVG Export Plug-In . SVG Version: 6.00 Build 0)  -->
<!DOCTYPE svg PUBLIC "-//W3C//DTD SVG 1.1//EN" "http://www.w3.org/Graphics/SVG/1.1/DTD/svg11.dtd">
<svg version="1.1" id="Layer_1" xmlns="http://www.w3.org/2000/svg" xmlns:xlink="http://www.w3.org/1999/xlink" x="0px" y="0px"
	 width="844.863px" height="895.109px" viewBox="0 0 844.863 895.109" enable-background="new 0 0 844.863 895.109"
	 xml:space="preserve">
<g>
	<polygon fill="#5D84C5" points="60.444,452.963 231.067,87.156 400.392,392.217 	"/>
	<polygon fill="#5D84C5" points="48.932,501.021 48.932,843.268 221.78,648.144 394.641,783.861 394.641,439.915 	"/>
	<polygon fill="#5D84C5" points="795.932,394.075 449.459,455.196 449.459,112.95 795.932,51.842 624.013,253.902 	"/>
	<polygon fill="#5D84C5" points="794.284,779.093 449.459,840.206 449.459,497.968 563.063,478.445 565.034,584.808 
		688.875,565.424 687.662,456.324 794.284,436.856 	"/>
</g>
<path fill="#FFFFFF" d="M-497.391,444.149l-68.745-56.041l72.218-84.88c4.099-4.817,4.735-11.688,1.591-17.176
	c-2.703-4.719-7.704-7.545-13.012-7.545c-0.865,0-1.737,0.075-2.609,0.229l-165.547,29.198c-7.168,1.264-12.395,7.493-12.395,14.772
	c0,0,0,106.972,0,110.597s-1.716,4.066-3.635,0.596s-72.599-130.797-72.599-130.797c-2.651-4.775-7.679-7.72-13.113-7.72
	c-0.176,0-0.352,0.003-0.529,0.009c-5.635,0.198-10.684,3.54-13.067,8.65l-81.525,174.784c-2.367,5.075-4.905,10.101-5.975,15.068
	s-0.932,8.255-0.932,14.236v163.527c0,6.232,3.854,11.815,9.681,14.025c1.733,0.657,3.533,0.976,5.315,0.976
	c4.213,0,8.328-1.776,11.231-5.055l73.215-82.651l71.477,56.118c2.694,2.115,7.789,4.132,11.039,4.695
	c4.154,0.72,8.577,4.404,9.417,10.43c0.572,4.104,1.964,8.645,5.363,11.495c2.722,2.281,6.14,3.505,9.637,3.505
	c0.871,0,1.747-0.076,2.618-0.23l164.76-29.202c7.163-1.27,12.382-7.495,12.382-14.77V477.472c0-6.906,0.318-10.787,0.396-15.117
	C-490.574,453.372-492.844,447.857-497.391,444.149z M-571.639,526.089l-29.351,4.594l-0.623-33.617
	c-0.049-2.656-0.811-5.214-2.148-7.441l31.955-5.638c-0.181,0.96-0.279,1.945-0.268,2.954L-571.639,526.089z M-670.89,322.707
	l165.547-29.198l-82.144,96.546l82.144,66.976l-165.547,29.205V322.707z M-682.082,496.192c0.077,0.087,0.147,0.18,0.227,0.265
	c-0.076,0.082-0.152,0.163-0.227,0.246V496.192z M-685.89,468.976c-0.086-0.098-0.164-0.201-0.253-0.296
	c0.085-0.056,0.169-0.113,0.253-0.17V468.976z M-775.239,310.383l80.904,145.761l-162.43,29.023L-775.239,310.383z
	 M-697.082,643.273l-82.595-64.848l-82.588,93.232V508.131l165.183-29.198V643.273z M-506.13,640.994l-164.76,29.202V506.672
	l54.28-9.328l0.942,50.819l59.172-9.262l-0.58-52.128l50.945-9.302V640.994z"/>
<g>
	<g>
		<polygon fill="#5D84C5" points="-856.764,485.167 -775.239,310.383 -694.334,456.144 		"/>
	</g>
	<g>
		<polygon fill="#5D84C5" points="-862.265,508.131 -862.265,671.658 -779.677,578.426 -697.082,643.273 -697.082,478.933 		"/>
	</g>
	<g>
		<polygon fill="#5D84C5" points="-505.343,457.03 -670.89,486.235 -670.89,322.707 -505.343,293.509 -587.487,390.055 		"/>
	</g>
	<g>
		<polygon fill="#5D84C5" points="-506.13,640.994 -670.89,670.196 -670.89,506.672 -616.61,497.344 -615.667,548.163 
			-556.495,538.901 -557.075,486.773 -506.13,477.472 		"/>
	</g>
</g>
<rect x="-608.408" y="479.698" fill="#FFFFFF" width="42.438" height="54.564"/>
</svg>
