<?xml version="1.0" encoding="utf-8"?>
<!-- Generator: Adobe Illustrator 16.0.0, SVG Export Plug-In . SVG Version: 6.00 Build 0)  -->
<!DOCTYPE svg PUBLIC "-//W3C//DTD SVG 1.1//EN" "http://www.w3.org/Graphics/SVG/1.1/DTD/svg11.dtd">
<svg version="1.1" id="Layer_1" xmlns="http://www.w3.org/2000/svg" xmlns:xlink="http://www.w3.org/1999/xlink" x="0px" y="0px"
	 width="600px" height="300px" viewBox="0 0 600 300" enable-background="new 0 0 600 300" xml:space="preserve">
<g>
	<path fill="#98B3C4" d="M300,654c0,82.843-67.152,150-150,150C67.157,804,0,736.843,0,654c0-82.848,67.157-150,150-150
		C232.848,504,300,571.152,300,654z"/>
	<g>
		<path fill="#DBE6EA" d="M204.65,607.501l-45.542,9.739v10.901c14.112,4.981,25.018,9.516,36.438,15.605
			c-3.34,5.093-6.162,10.718-9.368,16.419c-8.339-5.866-20.273-11.581-27.07-14.452l0.255,60.616l-16.165,3.55l0.259-89.206
			l-44.647,10.052v-15.395c0,0,52.468-10.87,105.84-23.225V607.501z"/>
	</g>
</g>
<g>
	<path fill="#5D84C5" d="M600,654c0,82.843-67.152,150-150,150c-82.843,0-150-67.157-150-150c0-82.848,67.157-150,150-150
		C532.848,504,600,571.152,600,654z"/>
	<g>
		<path fill="#FFFFFF" d="M504.65,607.501l-45.542,9.739v10.901c14.112,4.981,25.019,9.516,36.438,15.605
			c-3.341,5.093-6.162,10.718-9.368,16.419c-8.339-5.866-20.273-11.581-27.07-14.452l0.255,60.616l-16.164,3.55l0.259-89.206
			l-44.647,10.052v-15.395c0,0,52.469-10.87,105.84-23.225V607.501z"/>
	</g>
</g>
<g>
	<g>
		<path fill="#98B3C4" d="M300,150c0,82.839-67.156,150-150,150C67.152,300,0,232.839,0,150C0,67.152,67.152,0,150,0
			C232.844,0,300,67.152,300,150z"/>
		<g>
			<g>
				<path fill="#DBE6EA" d="M202.217,182.61c-0.383,0.087-57.73,12.029-104.944,23.032v-15.78l43.75-9.343V91.368
					c0,0,7.699-1.69,12.574-2.759c6.671-1.335,3.595,2.676,3.595,4.982v27.58l35.15-7.972v15.396l-35.15,7.453v40.923l45.026-10.142
					V182.61z"/>
			</g>
		</g>
	</g>
	<g>
		<path fill="#5D84C5" d="M600,150c0,82.839-67.157,150-150,150c-82.848,0-150-67.161-150-150C300,67.152,367.152,0,450,0
			C532.843,0,600,67.152,600,150z"/>
		<g>
			<g>
				<path fill="#FFFFFF" d="M502.193,182.62c-0.385,0.085-57.719,12.025-104.921,23.026V189.87l43.738-9.343V91.384
					c0,0,7.696-1.689,12.57-2.759c6.669-1.336,3.591,2.675,3.591,4.983v27.577l35.146-7.97v15.392l-35.146,7.457v40.916
					l45.021-10.137V182.62z"/>
			</g>
		</g>
	</g>
</g>
</svg>
