<?xml version="1.0" encoding="utf-8"?>
<!-- Generator: Adobe Illustrator 16.0.0, SVG Export Plug-In . SVG Version: 6.00 Build 0)  -->
<!DOCTYPE svg PUBLIC "-//W3C//DTD SVG 1.1//EN" "http://www.w3.org/Graphics/SVG/1.1/DTD/svg11.dtd">
<svg version="1.1" id="Layer_1" xmlns="http://www.w3.org/2000/svg" xmlns:xlink="http://www.w3.org/1999/xlink" x="0px" y="0px"
	 width="879.092px" height="115.354px" viewBox="0 0 879.092 115.354" enable-background="new 0 0 879.092 115.354"
	 xml:space="preserve">
<g>
	<g>
		<g>
			<path fill="#5D84C5" d="M50.179,38.082c0,9.751-7.889,23.86-25.089,27.637C7.89,69.495,0,58.845,0,49.094v-5.588
				c0-9.75,7.889-23.861,25.089-27.636c17.2-3.775,25.089,6.874,25.089,16.624L50.179,38.082L50.179,38.082z M39.771,35.326
				c0-6.465-4.602-12.246-14.681-10.034C15.011,27.504,10.408,35.306,10.408,41.77v4.492c0,6.464,4.602,12.247,14.681,10.035
				S39.77,46.282,39.77,39.818L39.771,35.326L39.771,35.326z M13.147,78.748L77.021,64.73v38.125l-10.846,2.381V76.422L13.147,88.06
				V78.748z M91.373,30.793L77.02,33.943V59.47l-10.736,2.357V3.213L77.02,0.857v23.665l14.353-3.149V30.793z"/>
		</g>
	</g>
	<path fill="#5D84C5" d="M149.125,60.921c0,4.518-3.649,8.173-8.16,8.173c-4.511,0-8.17-3.655-8.17-8.173
		c0-4.506,3.659-8.16,8.17-8.16C145.476,52.761,149.125,56.416,149.125,60.921z"/>
	<path fill="#5D84C5" d="M349.531,60.921c0,4.518-3.649,8.173-8.16,8.173c-4.511,0-8.17-3.655-8.17-8.173
		c0-4.506,3.659-8.16,8.17-8.16C345.882,52.761,349.531,56.416,349.531,60.921z"/>
	<path fill="#5D84C5" d="M549.937,60.921c0,4.518-3.647,8.173-8.159,8.173s-8.17-3.655-8.17-8.173c0-4.506,3.658-8.16,8.17-8.16
		C546.288,52.761,549.937,56.416,549.937,60.921z"/>
	<path fill="#5D84C5" d="M750.343,60.921c0,4.518-3.647,8.173-8.16,8.173c-4.511,0-8.17-3.655-8.17-8.173
		c0-4.506,3.659-8.16,8.17-8.16C746.694,52.761,750.343,56.416,750.343,60.921z"/>
	<g>
		<g>
			<path fill="#5D84C5" d="M255.305,106.329V73.351l-24.323,5.338v32.979l-10.846,2.38V81.069L196.8,86.191V76.99l92.688-20.343
				v9.202L266.15,70.97v32.979L255.305,106.329z M276.231,47.943l-66.175,14.523V21.162l66.175-14.523V47.943z M220.793,51.016
				l44.7-9.81V18.089l-44.7,9.81V51.016L220.793,51.016z"/>
		</g>
	</g>
	<g>
		<g>
			<path fill="#5D84C5" d="M426.232,62.091c-0.986,2.627-2.849,5.226-6.355,9.83c-4.492,5.916-10.299,12.997-17.748,21.425
				l-7.122-5.778c6.684-7.383,12.38-14.22,17.311-20.779c6.683-9.026,8.436-14.34,8.436-22.119V20.347l10.956-2.405v24.322
				c0,8.654,2.081,12.69,8.765,18.673c4.711,4.116,9.531,7.659,16.104,12.022l-7.012,8.989c-7.56-5.354-12.49-9.2-16.652-12.779
				c-3.068-2.613-5.697-5.104-6.574-7.104L426.232,62.091z M490.873,43.523l-15.558,3.414v55.107l-10.848,2.381V3.412l10.848-2.38
				v36.482l15.558-3.414V43.523L490.873,43.523z"/>
		</g>
	</g>
	<g>
		<g>
			<path fill="#5D84C5" d="M638.035,87.996V69.7l-42.181,9.257v-9.203l92.688-20.342v9.203l-39.552,8.681v18.296L638.035,87.996z
				 M676.82,9.805v8.983l-29.253,6.42v0.329c0,6.024,4.931,8.448,12.162,9.71c5.806,1.026,12.271,1.799,20.926,2.419l-3.616,9.667
				c-7.669-0.617-14.353-1.451-21.364-2.651c-4.93-0.89-12.489-2.737-13.476-4.821l-0.11,0.024
				c-0.984,2.517-8.326,7.743-13.146,10.664c-7.45,4.484-14.135,8.251-21.583,12.077l-3.726-8.058
				c8.873-4.467,15.009-7.896,20.927-11.494c7.12-4.302,12.159-9.134,12.159-15.158v-0.329l-29.143,6.396V25l29.143-6.396V8.526
				l10.848-2.38v10.079L676.82,9.805z M620.067,103.552l57.081-12.527v9.422l-67.929,14.907v-29.58l10.848-2.38V103.552z"/>
		</g>
	</g>
	<g>
		<g>
			<path fill="#5D84C5" d="M799.66,87.769c34.95-28.157,36.482-34.19,36.482-49.749v-9.97l-34.512,7.574v-9.313l45.249-9.931v19.392
				c0,19.94-1.534,26.412-41.521,59.4L799.66,87.769z M868.245,103.393V2.38L879.092,0v101.012L868.245,103.393z"/>
		</g>
	</g>
</g>
</svg>
